<?xml version="1.0" encoding="UTF-8" standalone="no"?>
<svg
   version="1.1"
   width="579.77289pt"
   height="163.82381pt"
   id="svg34"
   viewBox="0 0 579.77288 163.82381"
   sodipodi:docname="欧阳丶wl(Flooring Terminal).cdr"
   inkscape:export-filename="欧阳丶wl(Flooring Terminal).cdr.svg"
   inkscape:export-xdpi="96"
   inkscape:export-ydpi="96"
   xmlns:inkscape="http://www.inkscape.org/namespaces/inkscape"
   xmlns:sodipodi="http://sodipodi.sourceforge.net/DTD/sodipodi-0.dtd"
   xmlns="http://www.w3.org/2000/svg"
   xmlns:svg="http://www.w3.org/2000/svg">
  <defs
     id="defs35" />
  <sodipodi:namedview
     id="namedview34"
     pagecolor="#ffffff"
     bordercolor="#000000"
     borderopacity="0.25"
     inkscape:showpageshadow="2"
     inkscape:pageopacity="0.0"
     inkscape:pagecheckerboard="0"
     inkscape:deskcolor="#d1d1d1"
     inkscape:document-units="pt" />
  <path
     d="M 2.1152122e-7,56.2691 H 62.5294 V 72.7143 H 41.5312 v 50.0794 H 20.9979 V 72.7143 H 2.1152122e-7 Z"
     style="fill:#000000;fill-rule:evenodd"
     id="path1"
     inkscape:export-filename="./logo-white.svg"
     inkscape:export-xdpi="96"
     inkscape:export-ydpi="96" />
  <path
     d="m 74.2969,56.2686 h 58.6464 V 70.4842 H 74.2969 Z m 0,24.8077 h 56.1372 V 94.6415 H 74.2969 Z m 0,26.6656 h 59.6682 v 15.0517 H 74.2969 Z"
     style="fill:#c59669;fill-rule:evenodd"
     id="path2" />
  <path
     d="M 151.5124,122.7936 V 83.2361 c 9.8306,0 19.5357,0.0704 29.3138,0.0704 0.9294,0 2.7559,-0.3103 5.4508,-0.9141 1.3627,-0.2629 2.4778,-0.9599 3.3292,-2.0903 0.8675,-1.1303 1.3008,-2.4159 1.3008,-3.871 0,-2.153 -0.6818,-3.81 -2.0436,-4.9556 -1.3627,-1.1617 -3.9186,-1.7341 -7.681,-1.7341 -9.723,0 -19.7173,-0.1917 -29.67,-0.1917 V 56.2686 h 34.2533 c 6.3488,0 11.2111,0.5419 14.5564,1.6417 3.3606,1.0838 6.0699,3.113 8.1296,6.0546 2.0598,2.9578 3.0816,6.5659 3.0816,10.8092 0,3.6854 -0.7895,6.8755 -2.3693,9.5542 -1.5637,2.6941 -3.7319,4.8624 -6.504,6.5346 -1.7494,1.0532 -4.1653,1.9359 -7.2155,2.6329 2.4465,0.82 4.2272,1.6256 5.3423,2.4465 0.7429,0.5418 1.8427,1.7188 3.2826,3.4996 1.4246,1.7807 2.3845,3.1587 2.8644,4.1347 l 9.9884,19.217 h -23.2279 l -10.9788,-20.2854 c -1.3941,-2.633 -2.633,-4.3366 -3.7167,-5.1261 -1.4865,-1.0218 -3.1748,-1.5331 -5.048,-1.5331 h -1.8122 v 26.9446 z"
     style="fill:#000000;fill-rule:evenodd"
     id="path3" />
  <path
     d="m 229.5153,56.2691 h 27.1145 l 10.3286,40.4785 10.3598,-40.4785 h 26.9906 v 66.5246 H 287.492 V 72.0796 l -12.9767,50.7141 H 259.2779 L 246.3321,72.0796 v 50.7141 h -16.8168 z"
     style="fill:#000000;fill-rule:evenodd"
     id="path4" />
  <path
     d="m 324.4274,56.2691 h 20.6263 v 66.5246 h -20.6263 z"
     style="fill:#000000;fill-rule:evenodd"
     id="path5" />
  <path
     d="m 366.132,56.2686 h 19.1856 l 44.3655,61.3633 v 5.1617 H 410.2643 L 385.4575,86.2643 v 36.5293 H 366.132 Z"
     style="fill:#000000;fill-rule:evenodd"
     id="path6" />
  <path
     d="m 477.9383,73.5191 c -5.0099,16.4237 -10.0104,32.8508 -15.0203,49.2745 h -20.9824 l 25.0392,-66.525 h 22.5003 l 24.9315,66.525 H 492.8814 C 487.8944,106.3707 482.927,89.942 477.9383,73.5191 Z"
     style="fill:#000000;fill-rule:evenodd"
     id="path7" />
  <path
     d="m 527.0921,56.2691 h 20.5336 v 50.1721 h 32.1472 v 16.3525 h -52.6808 z"
     style="fill:#000000;fill-rule:evenodd"
     id="path8" />
  <path
     d="m 6.6523002,163.5704 v -5.8748 l -5.1177,-8.0842 h 3.3047 l 3.3012,5.527 3.2135998,-5.527 h 3.2426 l -5.1176998,8.1037 v 5.8553 z M 25.4865,156.6754 c 0,-1.4233 0.2146,-2.619 0.6404,-3.5873 0.3149,-0.7115 0.7506,-1.3518 1.2997,-1.9171 0.549,-0.5655 1.1503,-0.9844 1.8034,-1.2608 0.8708,-0.3671 1.8748,-0.5522 3.0121,-0.5522 2.0599,0 3.704,0.6401 4.9422,1.9171 1.2345,1.2801 1.8518,3.0574 1.8518,5.3353 0,2.2581 -0.6139,4.0258 -1.8391,5.2994 -1.2248,1.277 -2.8658,1.914 -4.9161,1.914 -2.0764,0 -3.7301,-0.6336 -4.9552,-1.9041 -1.2249,-1.2673 -1.8392,-3.0155 -1.8392,-5.2443 z m 2.905,-0.0944 c 0,1.5826 0.3671,2.7816 1.0984,3.6003 0.7311,0.8155 1.6603,1.2251 2.7845,1.2251 1.1276,0 2.0503,-0.4062 2.7751,-1.2152 0.7211,-0.8124 1.082,-2.0276 1.082,-3.6491 0,-1.6018 -0.3509,-2.7978 -1.0562,-3.5841 -0.7019,-0.7894 -1.6345,-1.1826 -2.8009,-1.1826 -1.1631,0 -2.1022,0.3997 -2.814,1.1956 -0.7115,0.7994 -1.0689,2.0016 -1.0689,3.61 z m 22.9255,-6.9696 h 2.8267 v 7.5643 c 0,1.2022 0.0357,1.9788 0.104,2.3329 0.1202,0.572 0.4031,1.0335 0.8513,1.3779 0.4518,0.3475 1.0658,0.5199 1.8456,0.5199 0.7897,0 1.3875,-0.1624 1.7904,-0.4907 0.403,-0.3282 0.6434,-0.7279 0.7248,-1.2056 0.081,-0.4776 0.1233,-1.2671 0.1233,-2.372 v -7.7267 h 2.827 v 7.3401 c 0,1.6766 -0.0749,2.8627 -0.2277,3.5549 -0.1525,0.6919 -0.432,1.2767 -0.8413,1.7543 -0.4062,0.478 -0.9521,0.8547 -1.6344,1.1373 -0.6857,0.2829 -1.5761,0.4258 -2.6776,0.4258 -1.3289,0 -2.3361,-0.1528 -3.0218,-0.4615 -0.6857,-0.3087 -1.2282,-0.7084 -1.6279,-1.2022 -0.3997,-0.4938 -0.6596,-1.0071 -0.7863,-1.55 -0.1851,-0.7991 -0.2761,-1.982 -0.2761,-3.545 z m 24.1599,13.959 v -13.959 h 5.9364 c 1.4915,0 2.5766,0.1267 3.2527,0.3767 0.6789,0.2503 1.2183,0.6954 1.6245,1.3357 0.4062,0.6432 0.6109,1.3743 0.6109,2.1997 0,1.0494 -0.3053,1.914 -0.9196,2.5963 -0.6139,0.6823 -1.5304,1.1112 -2.7521,1.2897 0.6077,0.3544 1.1081,0.7441 1.5012,1.1699 0.3963,0.4258 0.9292,1.1829 1.5988,2.268 l 1.7024,2.723 h -3.3695 l -2.0211,-3.0479 c -0.7245,-1.0819 -1.2217,-1.7642 -1.4913,-2.0471 -0.2665,-0.2795 -0.5491,-0.4743 -0.8481,-0.5783 -0.3022,-0.104 -0.7767,-0.1559 -1.4264,-0.1559 h -0.5721 v 5.8292 z m 2.8267,-8.0519 h 2.0863 c 1.3516,0 2.1932,-0.0584 2.5311,-0.172 0.3348,-0.114 0.6012,-0.3121 0.7897,-0.5916 0.1917,-0.2792 0.2858,-0.6302 0.2858,-1.0494 0,-0.4711 -0.1267,-0.8481 -0.3768,-1.1407 -0.2503,-0.2891 -0.6046,-0.4711 -1.0593,-0.5456 -0.2307,-0.0326 -0.9164,-0.0488 -2.0568,-0.0488 h -2.2 z m 25.6669,-5.9071 h 2.8267 v 7.5643 c 0,1.2022 0.0357,1.9788 0.1041,2.3329 0.1201,0.572 0.403,1.0335 0.8512,1.3779 0.4518,0.3475 1.0658,0.5199 1.8456,0.5199 0.7898,0 1.3876,-0.1624 1.7904,-0.4907 0.4031,-0.3282 0.6435,-0.7279 0.7248,-1.2056 0.0811,-0.4776 0.1233,-1.2671 0.1233,-2.372 v -7.7267 h 2.827 v 7.3401 c 0,1.6766 -0.0748,2.8627 -0.2276,3.5549 -0.1525,0.6919 -0.432,1.2767 -0.8413,1.7543 -0.4062,0.478 -0.9522,0.8547 -1.6345,1.1373 -0.6857,0.2829 -1.5761,0.4258 -2.6776,0.4258 -1.3289,0 -2.336,-0.1528 -3.0217,-0.4615 -0.6857,-0.3087 -1.2283,-0.7084 -1.628,-1.2022 -0.3996,-0.4938 -0.6596,-1.0071 -0.7863,-1.55 -0.1851,-0.7991 -0.2761,-1.982 -0.2761,-3.545 z m 24.2379,13.959 v -13.8422 h 2.8267 v 11.4832 h 6.9991 v 2.359 z m 23.6044,0 v -11.6 h -4.1332 v -2.359 h 11.0736 v 2.359 h -4.1137 v 11.6 z m 18.7532,0 v -13.959 h 2.827 v 13.959 z m 15.5559,0 v -13.959 h 4.2339 l 2.5021,9.5205 2.4727,-9.5205 h 4.2434 v 13.959 h -2.6124 l -0.01,-10.9891 -2.7522,10.9891 h -2.7164 l -2.7391,-10.9891 -0.01,10.9891 z m 38.9348,0 h -3.0447 l -1.2056,-3.178 h -5.5984 l -1.16,3.178 h -2.9894 l 5.4198,-13.959 h 2.9861 z m -5.1665,-5.537 -1.9397,-5.1664 -1.8848,5.1664 z m 18.4445,5.537 v -11.6 h -4.1332 v -2.359 h 11.0735 v 2.359 h -4.1136 v 11.6 z m 18.8507,0 v -13.959 h 10.3328 v 2.359 h -7.5061 v 3.0997 h 6.9797 v 2.359 h -6.9797 v 3.7823 h 7.7788 v 2.359 z m 27.4181,0 v -13.959 h 9.5919 v 2.359 h -6.7652 v 3.3143 h 5.8487 v 2.359 h -5.8487 v 5.9267 z m 22.0674,0 v -13.8422 h 2.8267 v 11.4832 h 6.9991 v 2.359 z m 21.3265,-6.895 c 0,-1.4233 0.2146,-2.619 0.6403,-3.5873 0.315,-0.7115 0.7506,-1.3518 1.2997,-1.9171 0.5491,-0.5655 1.1503,-0.9844 1.8034,-1.2608 0.8708,-0.3671 1.8748,-0.5522 3.0121,-0.5522 2.0599,0 3.704,0.6401 4.9422,1.9171 1.2345,1.2801 1.8519,3.0574 1.8519,5.3353 0,2.2581 -0.614,4.0258 -1.8391,5.2994 -1.2249,1.277 -2.8659,1.914 -4.9162,1.914 -2.0763,0 -3.7301,-0.6336 -4.9552,-1.9041 -1.2249,-1.2673 -1.8391,-3.0155 -1.8391,-5.2443 z m 2.9049,-0.0944 c 0,1.5826 0.3671,2.7816 1.0984,3.6003 0.7311,0.8155 1.6603,1.2251 2.7845,1.2251 1.1276,0 2.0503,-0.4062 2.7751,-1.2152 0.7212,-0.8124 1.082,-2.0276 1.082,-3.6491 0,-1.6018 -0.3509,-2.7978 -1.0562,-3.5841 -0.7018,-0.7894 -1.6344,-1.1826 -2.8009,-1.1826 -1.163,0 -2.1022,0.3997 -2.8139,1.1956 -0.7115,0.7994 -1.069,2.0016 -1.069,3.61 z m 22.3404,0.0944 c 0,-1.4233 0.2146,-2.619 0.6404,-3.5873 0.3149,-0.7115 0.7506,-1.3518 1.2997,-1.9171 0.549,-0.5655 1.1503,-0.9844 1.8034,-1.2608 0.8708,-0.3671 1.8748,-0.5522 3.0121,-0.5522 2.0599,0 3.704,0.6401 4.9422,1.9171 1.2345,1.2801 1.8518,3.0574 1.8518,5.3353 0,2.2581 -0.6139,4.0258 -1.8391,5.2994 -1.2248,1.277 -2.8658,1.914 -4.9161,1.914 -2.0764,0 -3.7301,-0.6336 -4.9553,-1.9041 -1.2248,-1.2673 -1.8391,-3.0155 -1.8391,-5.2443 z m 2.905,-0.0944 c 0,1.5826 0.3671,2.7816 1.0984,3.6003 0.7311,0.8155 1.6603,1.2251 2.7845,1.2251 1.1276,0 2.0503,-0.4062 2.7751,-1.2152 0.7211,-0.8124 1.082,-2.0276 1.082,-3.6491 0,-1.6018 -0.351,-2.7978 -1.0562,-3.5841 -0.7019,-0.7894 -1.6345,-1.1826 -2.8009,-1.1826 -1.1631,0 -2.1022,0.3997 -2.814,1.1956 -0.7115,0.7994 -1.0689,2.0016 -1.0689,3.61 z m 22.9255,6.9894 v -13.959 h 5.9363 c 1.4916,0 2.5767,0.1267 3.2527,0.3767 0.6789,0.2503 1.2184,0.6954 1.6246,1.3357 0.4062,0.6432 0.6108,1.3743 0.6108,2.1997 0,1.0494 -0.3053,1.914 -0.9195,2.5963 -0.614,0.6823 -1.5305,1.1112 -2.7522,1.2897 0.6078,0.3544 1.1081,0.7441 1.5012,1.1699 0.3963,0.4258 0.9292,1.1829 1.5988,2.268 l 1.7025,2.723 h -3.3696 l -2.0211,-3.0479 c -0.7245,-1.0819 -1.2217,-1.7642 -1.4913,-2.0471 -0.2664,-0.2795 -0.5491,-0.4743 -0.8481,-0.5783 -0.3022,-0.104 -0.7767,-0.1559 -1.4264,-0.1559 h -0.572 v 5.8292 z m 2.8267,-8.0519 h 2.0863 c 1.3515,0 2.1931,-0.0584 2.531,-0.172 0.3348,-0.114 0.6012,-0.3121 0.7898,-0.5916 0.1916,-0.2792 0.2857,-0.6302 0.2857,-1.0494 0,-0.4711 -0.1267,-0.8481 -0.3767,-1.1407 -0.2503,-0.2891 -0.6047,-0.4711 -1.0593,-0.5456 -0.2308,-0.0326 -0.9165,-0.0488 -2.0569,-0.0488 h -2.1999 z m 24.9259,3.5289 2.749,-0.273 c 0.1655,0.9196 0.4972,1.5922 1.0006,2.0242 0.5037,0.4323 1.1829,0.6466 2.0376,0.6466 0.9031,0 1.5854,-0.1916 2.0437,-0.5751 0.4581,-0.3833 0.6889,-0.8317 0.6889,-1.3451 0,-0.3313 -0.0975,-0.6108 -0.2892,-0.845 -0.1919,-0.2304 -0.5298,-0.432 -1.0105,-0.6009 -0.3283,-0.1171 -1.0758,-0.3186 -2.2453,-0.6109 -1.5044,-0.377 -2.5606,-0.8385 -3.168,-1.3875 -0.8547,-0.7702 -1.2805,-1.7091 -1.2805,-2.8171 0,-0.7115 0.2016,-1.3811 0.6013,-2.0016 0.4028,-0.6207 0.9813,-1.0919 1.7382,-1.4167 0.7571,-0.3249 1.667,-0.4873 2.7394,-0.4873 1.7447,0 3.0608,0.3867 3.9413,1.1631 0.8838,0.7767 1.3453,1.8099 1.3907,3.1065 l -2.827,0.0975 c -0.1202,-0.7215 -0.3768,-1.2382 -0.7699,-1.5534 -0.3932,-0.3152 -0.9848,-0.4743 -1.7711,-0.4743 -0.8121,0 -1.4491,0.169 -1.9072,0.5069 -0.2956,0.2177 -0.4453,0.5068 -0.4453,0.8708 0,0.3313 0.1398,0.6142 0.4193,0.8481 0.3543,0.3022 1.2152,0.614 2.5832,0.9391 1.368,0.3215 2.3785,0.6596 3.0316,1.0041 0.6562,0.3475 1.1699,0.8186 1.5401,1.4198 0.3705,0.6013 0.5556,1.3419 0.5556,2.2224 0,0.7994 -0.2208,1.55 -0.6659,2.2487 -0.4453,0.6985 -1.0723,1.2183 -1.8847,1.5562 -0.8124,0.3413 -1.8261,0.5103 -3.0382,0.5103 -1.7643,0 -3.1193,-0.4062 -4.0649,-1.2218 -0.9453,-0.8124 -1.5075,-1.9984 -1.6928,-3.5546 z m 23.2404,-2.372 c 0,-1.4233 0.2145,-2.619 0.6403,-3.5873 0.3149,-0.7115 0.7506,-1.3518 1.2997,-1.9171 0.5491,-0.5655 1.1503,-0.9844 1.8034,-1.2608 0.8708,-0.3671 1.8748,-0.5522 3.0121,-0.5522 2.0599,0 3.704,0.6401 4.9422,1.9171 1.2345,1.2801 1.8519,3.0574 1.8519,5.3353 0,2.2581 -0.614,4.0258 -1.8391,5.2994 -1.2249,1.277 -2.8659,1.914 -4.9162,1.914 -2.0764,0 -3.7301,-0.6336 -4.9552,-1.9041 -1.2249,-1.2673 -1.8391,-3.0155 -1.8391,-5.2443 z m 2.9049,-0.0944 c 0,1.5826 0.3671,2.7816 1.0984,3.6003 0.7311,0.8155 1.6603,1.2251 2.7845,1.2251 1.1276,0 2.0503,-0.4062 2.7751,-1.2152 0.7212,-0.8124 1.082,-2.0276 1.082,-3.6491 0,-1.6018 -0.3509,-2.7978 -1.0562,-3.5841 -0.7018,-0.7894 -1.6344,-1.1826 -2.8009,-1.1826 -1.163,0 -2.1022,0.3997 -2.8139,1.1956 -0.7115,0.7994 -1.069,2.0016 -1.069,3.61 z m 23.0034,6.9894 v -13.8422 h 2.8268 v 11.4832 h 6.999 v 2.359 z m 21.9116,-13.959 h 2.8267 v 7.5643 c 0,1.2022 0.0357,1.9788 0.104,2.3329 0.1202,0.572 0.4031,1.0335 0.8513,1.3779 0.4518,0.3475 1.0658,0.5199 1.8456,0.5199 0.7897,0 1.3876,-0.1624 1.7904,-0.4907 0.403,-0.3282 0.6434,-0.7279 0.7248,-1.2056 0.081,-0.4776 0.1233,-1.2671 0.1233,-2.372 v -7.7267 h 2.827 v 7.3401 c 0,1.6766 -0.0749,2.8627 -0.2277,3.5549 -0.1525,0.6919 -0.432,1.2767 -0.8413,1.7543 -0.4062,0.478 -0.9521,0.8547 -1.6344,1.1373 -0.6857,0.2829 -1.5761,0.4258 -2.6776,0.4258 -1.3289,0 -2.3361,-0.1528 -3.0218,-0.4615 -0.6857,-0.3087 -1.2282,-0.7084 -1.6279,-1.2022 -0.3997,-0.4938 -0.6596,-1.0071 -0.7863,-1.55 -0.1851,-0.7991 -0.2761,-1.982 -0.2761,-3.545 z m 27.2987,13.959 v -11.6 h -4.1332 v -2.359 h 11.0736 v 2.359 h -4.1137 v 11.6 z m 18.7532,0 v -13.959 h 2.827 v 13.959 z m 15.01,-6.895 c 0,-1.4233 0.2146,-2.619 0.6404,-3.5873 0.3149,-0.7115 0.7506,-1.3518 1.2997,-1.9171 0.549,-0.5655 1.1503,-0.9844 1.8034,-1.2608 0.8708,-0.3671 1.8748,-0.5522 3.012,-0.5522 2.06,0 3.7041,0.6401 4.9423,1.9171 1.2344,1.2801 1.8518,3.0574 1.8518,5.3353 0,2.2581 -0.614,4.0258 -1.8391,5.2994 -1.2248,1.277 -2.8658,1.914 -4.9161,1.914 -2.0764,0 -3.7301,-0.6336 -4.9553,-1.9041 -1.2248,-1.2673 -1.8391,-3.0155 -1.8391,-5.2443 z m 2.905,-0.0944 c 0,1.5826 0.3671,2.7816 1.0984,3.6003 0.731,0.8155 1.6602,1.2251 2.7845,1.2251 1.1276,0 2.0503,-0.4062 2.7751,-1.2152 0.7211,-0.8124 1.082,-2.0276 1.082,-3.6491 0,-1.6018 -0.351,-2.7978 -1.0562,-3.5841 -0.7019,-0.7894 -1.6345,-1.1826 -2.8009,-1.1826 -1.1631,0 -2.1022,0.3997 -2.814,1.1956 -0.7115,0.7994 -1.0689,2.0016 -1.0689,3.61 z m 22.9254,6.9894 v -13.959 h 2.7358 l 5.7449,9.3546 v -9.3546 h 2.6124 v 13.959 h -2.8235 l -5.6571,-9.1761 v 9.1761 z"
     style="fill:#000000;fill-rule:evenodd"
     id="path9" />
  <path
     d="M 5.4104002,-3.5438958e-7 H 575.289 V 40.3852 H 5.4104002 Z"
     style="fill:#c59669;fill-rule:evenodd"
     id="path10" />
  <path
     d="M 28.6826,32.4374 V 7.9479996 H 45.5105 V 12.0866 H 33.6421 V 17.901 H 43.903 v 4.1386 H 33.6421 v 10.3978 z m 70.6615,0 V 8.1532996 h 4.9595 V 28.2988 h 12.2788 v 4.1386 z m 69.3615,-12.0966 c 0,-2.4967 0.3764,-4.5947 1.1231,-6.2932 0.553,-1.2486 1.317,-2.3715 2.2802,-3.3633 0.9635,-0.9921004 2.018,-1.7274004 3.1637,-2.2119004 1.5279,-0.6443 3.2893,-0.9691 5.2844,-0.9691 3.6141,0 6.4987,1.1231 8.6706,3.3633004 2.1662,2.2461 3.2493,5.3643 3.2493,9.3603 0,3.9619 -1.0774,7.063 -3.2266,9.2976 -2.149,2.2402 -5.0279,3.3576 -8.6247,3.3576 -3.6428,0 -6.5444,-1.1117 -8.6933,-3.3406 -2.1493,-2.2232 -3.2267,-5.29 -3.2267,-9.2007 z m 5.0964,-0.1652 c 0,2.7762 0.644,4.8795 1.9267,6.3161 1.2827,1.4309 2.9129,2.1492 4.8855,2.1492 1.978,0 3.5969,-0.7126 4.8682,-2.1322 1.2654,-1.425 1.8981,-3.5569 1.8981,-6.4015 0,-2.8105 -0.6157,-4.9082 -1.8524,-6.2878 -1.2314,-1.3853 -2.8675,-2.0749 -4.9139,-2.0749 -2.0409,0 -3.6884,0.7013 -4.9368,2.0979 -1.2484,1.4023 -1.8754,3.5113 -1.8754,6.3332 z m 71.14,0.1652 c 0,-2.4967 0.3764,-4.5947 1.1231,-6.2932 0.553,-1.2486 1.3169,-2.3715 2.2802,-3.3633 0.9634,-0.9921004 2.0179,-1.7274004 3.1637,-2.2119004 1.5279,-0.6443 3.2893,-0.9691 5.2843,-0.9691 3.6142,0 6.4988,1.1231 8.6707,3.3633004 2.1662,2.2461 3.2493,5.3643 3.2493,9.3603 0,3.9619 -1.0774,7.063 -3.2267,9.2976 -2.1489,2.2402 -5.0278,3.3576 -8.6247,3.3576 -3.6428,0 -6.5443,-1.1117 -8.6932,-3.3406 -2.1493,-2.2232 -3.2267,-5.29 -3.2267,-9.2007 z m 5.0964,-0.1652 c 0,2.7762 0.644,4.8795 1.9267,6.3161 1.2827,1.4309 2.9129,2.1492 4.8855,2.1492 1.978,0 3.5969,-0.7126 4.8682,-2.1322 1.2654,-1.425 1.8981,-3.5569 1.8981,-6.4015 0,-2.8105 -0.6157,-4.9082 -1.8524,-6.2878 -1.2314,-1.3853 -2.8676,-2.0749 -4.9139,-2.0749 -2.0409,0 -3.6884,0.7013 -4.9368,2.0979 -1.2484,1.4023 -1.8754,3.5113 -1.8754,6.3332 z m 72.1661,12.2618 V 7.9479996 h 10.415 c 2.6164,0 4.5205,0.2223 5.7062,0.6613 1.1914,0.4388 2.1376,1.2198 2.8502,2.3429004 0.7127,1.1287 1.0718,2.4111 1.0718,3.8591 0,1.8414 -0.536,3.3576 -1.6135,4.5547 -1.0771,1.1973 -2.6847,1.9496 -4.8282,2.2632 1.0661,0.6213 1.944,1.3053 2.6336,2.0522 0.6954,0.7467 1.6305,2.075 2.8046,3.979 l 2.9872,4.777 H 338.32 l -3.5458,-5.347 c -1.2711,-1.8984 -2.1433,-3.0954 -2.6164,-3.5915 -0.4674,-0.4901 -0.9635,-0.8323 -1.4879,-1.0145 -0.5301,-0.1826 -1.3624,-0.2739 -2.5027,-0.2739 h -1.0032 v 10.2269 z m 4.9595,-14.1259 h 3.6598 c 2.3715,0 3.8477,-0.1026 4.4408,-0.3022 0.587,-0.1995 1.0544,-0.5471 1.385,-1.0375 0.3364,-0.4901 0.5017,-1.1058 0.5017,-1.8411 0,-0.8266 -0.2222,-1.4879 -0.6613,-2.0009 -0.4388,-0.5074 -1.0602,-0.8266 -1.8584,-0.9579 -0.4045,-0.0569 -1.6075,-0.0853 -3.6082,-0.0853 h -3.8594 z m 69.2019,14.1259 V 7.9479996 h 4.9595 V 32.4374 Z m 59.3059,0 V 7.9479996 h 4.7999 L 470.5503,24.3598 V 7.9479996 h 4.583 V 32.4374 h -4.9535 l -9.9247,-16.0983 v 16.0983 z m 85.722,-8.9955 v -4.1386 h 10.6372 v 9.7708 c -1.0318,1.0091 -2.531,1.8927 -4.4977,2.662 -1.961,0.7639 -3.9503,1.146 -5.9683,1.146 -2.5597,0 -4.7886,-0.536 -6.6926,-1.6134 -1.8981,-1.0772 -3.329,-2.6221 -4.2869,-4.6231 -0.9575,-2.0009 -1.4363,-4.1842 -1.4363,-6.5384 0,-2.554 0.5358,-4.8225 1.6019,-6.8122 1.0715,-1.9837 2.6336,-3.5115004 4.6913,-4.5717004 1.5735,-0.8152 3.5229,-1.22 5.8604,-1.22 3.0381,0 5.4153,0.6383 7.1254,1.9153 1.7045,1.2827004 2.8049,3.0442004 3.295,5.3017004 l -4.9252,0.9232 c -0.3421,-1.2027 -0.9918,-2.1546 -1.944,-2.8559 -0.9462,-0.6953 -2.1319,-1.0431 -3.5572,-1.0431 -2.1546,0 -3.8704,0.684 -5.1418,2.0579 -1.271,1.3737 -1.9097,3.409 -1.9097,6.1053 0,2.9129 0.6444,5.0961 1.9327,6.5497 1.294,1.4539 2.9812,2.1835 5.0735,2.1835 1.0318,0 2.0692,-0.2052 3.1067,-0.61 1.0432,-0.4048 1.9324,-0.9008 2.6791,-1.4822 v -3.1068 z"
     style="fill:#000000;fill-rule:evenodd"
     id="path11" />
  <path
     d="m 392.4432,56.7588 h 39.4879 v 51.3791 z"
     style="fill:#c59669;fill-rule:evenodd"
     id="path12" />
</svg>
