<?xml version="1.0" encoding="UTF-8" standalone="no"?>
<svg
   version="1.1"
   width="579.77289"
   height="66.525101"
   id="svg34"
   sodipodi:docname="欧阳丶wl(Flooring Terminal).cdr"
   xmlns:inkscape="http://www.inkscape.org/namespaces/inkscape"
   xmlns:sodipodi="http://sodipodi.sourceforge.net/DTD/sodipodi-0.dtd"
   xmlns="http://www.w3.org/2000/svg"
   xmlns:svg="http://www.w3.org/2000/svg">
  <defs
     id="defs35" />
  <sodipodi:namedview
     id="namedview34"
     pagecolor="#ffffff"
     bordercolor="#000000"
     borderopacity="0.25"
     inkscape:showpageshadow="2"
     inkscape:pageopacity="0.0"
     inkscape:pagecheckerboard="0"
     inkscape:deskcolor="#d1d1d1" />
  <path
     d="M 4.7302246e-8,4.939209e-4 H 62.5294 V 16.445694 H 41.5312 v 50.0794 H 20.9979 v -50.0794 H 4.7302246e-8 Z"
     style="fill:#000000;fill-rule:evenodd"
     id="path1"
     inkscape:export-filename="path1.svg"
     inkscape:export-xdpi="96"
     inkscape:export-ydpi="96" />
  <path
     d="m 74.2969,-6.0791016e-6 h 58.6464 V 14.215594 H 74.2969 Z M 74.2969,24.807694 h 56.1372 v 13.5652 H 74.2969 Z m 0,26.6656 h 59.6682 v 15.0517 H 74.2969 Z"
     style="fill:#c59669;fill-rule:evenodd"
     id="path2" />
  <path
     d="m 151.5124,66.524994 v -39.5575 c 9.8306,0 19.5357,0.0704 29.3138,0.0704 0.9294,0 2.7559,-0.3103 5.4508,-0.9141 1.3627,-0.2629 2.4778,-0.9599 3.3292,-2.0903 0.8675,-1.1303 1.3008,-2.4159 1.3008,-3.871 0,-2.153 -0.6818,-3.81 -2.0436,-4.9556 -1.3627,-1.1617 -3.9186,-1.7341 -7.681,-1.7341 -9.723,0 -19.7173,-0.1917 -29.67,-0.1917 V -6.0791016e-6 h 34.2533 c 6.3488,0 11.2111,0.5418999991016 14.5564,1.6416999791016 3.3606,1.0838 6.0699,3.113 8.1296,6.0546 2.0598,2.9578001 3.0816,6.5659001 3.0816,10.8092001 0,3.6854 -0.7895,6.8755 -2.3693,9.5542 -1.5637,2.6941 -3.7319,4.8624 -6.504,6.5346 -1.7494,1.0532 -4.1653,1.9359 -7.2155,2.6329 2.4465,0.82 4.2272,1.6256 5.3423,2.4465 0.7429,0.5418 1.8427,1.7188 3.2826,3.4996 1.4246,1.7807 2.3845,3.1587 2.8644,4.1347 l 9.9884,19.217 h -23.2279 l -10.9788,-20.2854 c -1.3941,-2.633 -2.633,-4.3366 -3.7167,-5.1261 -1.4865,-1.0218 -3.1748,-1.5331 -5.048,-1.5331 h -1.8122 v 26.9446 z"
     style="fill:#000000;fill-rule:evenodd"
     id="path3" />
  <path
     d="m 229.5153,4.939209e-4 h 27.1145 L 266.9584,40.478994 277.3182,4.939209e-4 h 26.9906 V 66.525094 H 287.492 v -50.7141 l -12.9767,50.7141 h -15.2374 l -12.9458,-50.7141 v 50.7141 h -16.8168 z"
     style="fill:#000000;fill-rule:evenodd"
     id="path4" />
  <path
     d="m 324.4274,4.939209e-4 h 20.6263 V 66.525094 h -20.6263 z"
     style="fill:#000000;fill-rule:evenodd"
     id="path5" />
  <path
     d="m 366.132,-6.0791016e-6 h 19.1856 L 429.6831,61.363294 v 5.1617 h -19.4188 l -24.8068,-36.5293 v 36.5293 H 366.132 Z"
     style="fill:#000000;fill-rule:evenodd"
     id="path6" />
  <path
     d="m 477.9383,17.250494 c -5.0099,16.4237 -10.0104,32.8508 -15.0203,49.2745 H 441.9356 L 466.9748,-6.0791016e-6 h 22.5003 L 514.4066,66.524994 h -21.5252 c -4.987,-16.4229 -9.9544,-32.8516 -14.9431,-49.2745 z"
     style="fill:#000000;fill-rule:evenodd"
     id="path7" />
  <path
     d="m 527.0921,4.939209e-4 h 20.5336 V 50.172594 h 32.1472 v 16.3525 h -52.6808 z"
     style="fill:#000000;fill-rule:evenodd"
     id="path8" />
  <path
     d="m 392.4432,0.49019392 h 39.4879 V 51.869294 Z"
     style="fill:#c59669;fill-rule:evenodd"
     id="path12" />
</svg>
