<?xml version="1.0" encoding="UTF-8" standalone="no"?>
<svg
   version="1.1"
   width="579.77289"
   height="66.525085"
   id="svg34"
   sodipodi:docname="欧阳丶wl(Flooring Terminal).cdr"
   xmlns:inkscape="http://www.inkscape.org/namespaces/inkscape"
   xmlns:sodipodi="http://sodipodi.sourceforge.net/DTD/sodipodi-0.dtd"
   xmlns:xlink="http://www.w3.org/1999/xlink"
   xmlns="http://www.w3.org/2000/svg"
   xmlns:svg="http://www.w3.org/2000/svg">
  <defs
     id="defs35" />
  <sodipodi:namedview
     id="namedview34"
     pagecolor="#ffffff"
     bordercolor="#000000"
     borderopacity="0.25"
     inkscape:showpageshadow="2"
     inkscape:pageopacity="0.0"
     inkscape:pagecheckerboard="0"
     inkscape:deskcolor="#d1d1d1" />
  <g
     id="Layer1000"
     transform="translate(-33.6796,-675.45563)">
    <defs
       id="defs14">
      <linearGradient
         id="grad1">
        <stop
           offset="0%"
           stop-color="#c6a564"
           stop-opacity="1.0000"
           id="stop13" />
        <stop
           offset="100%"
           stop-color="#a77f65"
           stop-opacity="1.0000"
           id="stop14" />
      </linearGradient>
      <linearGradient
         xlink:href="#grad1"
         id="grad2"
         x1="34.738888"
         y1="654.8595"
         x2="34.738888"
         y2="719.35553"
         gradientTransform="scale(0.9695071,1.031452)"
         gradientUnits="userSpaceOnUse" />
    </defs>
    <path
       d="M 33.6796,675.4561 H 96.209 v 16.4452 H 75.2108 v 50.0794 H 54.6775 V 691.9013 H 33.6796 Z"
       style="fill:url(#grad2)"
       id="path14" />
    <defs
       id="defs16">
      <linearGradient
         id="grad3">
        <stop
           offset="0%"
           stop-color="#c6a564"
           stop-opacity="1.0000"
           id="stop15" />
        <stop
           offset="100%"
           stop-color="#a77f65"
           stop-opacity="1.0000"
           id="stop16" />
      </linearGradient>
      <linearGradient
         xlink:href="#grad3"
         id="grad4"
         x1="114.01191"
         y1="639.69922"
         x2="114.01191"
         y2="702.70264"
         gradientTransform="scale(0.94706334,1.0558956)"
         gradientUnits="userSpaceOnUse" />
    </defs>
    <path
       d="m 107.9765,675.4556 h 58.6464 v 14.2156 h -58.6464 z m 0,24.8077 h 56.1372 v 13.5652 h -56.1372 z m 0,26.6656 h 59.6682 v 15.0517 h -59.6682 z"
       style="fill:url(#grad4)"
       id="path16" />
    <defs
       id="defs18">
      <linearGradient
         id="grad5">
        <stop
           offset="0%"
           stop-color="#c6a564"
           stop-opacity="1.0000"
           id="stop17" />
        <stop
           offset="100%"
           stop-color="#a77f65"
           stop-opacity="1.0000"
           id="stop18" />
      </linearGradient>
      <linearGradient
         xlink:href="#grad5"
         id="grad6"
         x1="186.76404"
         y1="669.77014"
         x2="186.76404"
         y2="735.73517"
         gradientTransform="scale(0.99158276,1.0084887)"
         gradientUnits="userSpaceOnUse" />
    </defs>
    <path
       d="m 185.192,741.9806 v -39.5575 c 9.8306,0 19.5357,0.0704 29.3138,0.0704 0.9294,0 2.7559,-0.3103 5.4508,-0.9141 1.3627,-0.2629 2.4778,-0.9599 3.3292,-2.0903 0.8675,-1.1303 1.3008,-2.4159 1.3008,-3.871 0,-2.153 -0.6818,-3.81 -2.0436,-4.9556 -1.3627,-1.1617 -3.9186,-1.7341 -7.681,-1.7341 -9.723,0 -19.7173,-0.1917 -29.67,-0.1917 v -13.2811 h 34.2533 c 6.3488,0 11.2111,0.5419 14.5564,1.6417 3.3606,1.0838 6.0699,3.113 8.1296,6.0546 2.0598,2.9578 3.0816,6.5659 3.0816,10.8092 0,3.6854 -0.7895,6.8755 -2.3693,9.5542 -1.5637,2.6941 -3.7319,4.8624 -6.504,6.5346 -1.7494,1.0532 -4.1653,1.9359 -7.2155,2.6329 2.4465,0.82 4.2272,1.6256 5.3423,2.4465 0.7429,0.5418 1.8427,1.7188 3.2826,3.4996 1.4246,1.7807 2.3845,3.1587 2.8644,4.1347 l 9.9884,19.217 h -23.2279 l -10.9788,-20.2854 c -1.3941,-2.633 -2.633,-4.3366 -3.7167,-5.1261 -1.4865,-1.0218 -3.1748,-1.5331 -5.048,-1.5331 h -1.8122 v 26.9446 z"
       style="fill:url(#grad6)"
       id="path18" />
    <defs
       id="defs20">
      <linearGradient
         id="grad7">
        <stop
           offset="0%"
           stop-color="#c6a564"
           stop-opacity="1.0000"
           id="stop19" />
        <stop
           offset="100%"
           stop-color="#a77f65"
           stop-opacity="1.0000"
           id="stop20" />
      </linearGradient>
      <linearGradient
         xlink:href="#grad7"
         id="grad8"
         x1="248.21996"
         y1="716.20593"
         x2="248.21996"
         y2="786.74396"
         gradientTransform="scale(1.0603294,0.94310318)"
         gradientUnits="userSpaceOnUse" />
    </defs>
    <path
       d="m 263.1949,675.4561 h 27.1145 l 10.3286,40.4785 10.3598,-40.4785 h 26.9906 v 66.5246 h -16.8168 v -50.7141 l -12.9767,50.7141 h -15.2374 l -12.9458,-50.7141 v 50.7141 h -16.8168 z"
       style="fill:url(#grad8)"
       id="path20" />
    <defs
       id="defs22">
      <linearGradient
         id="grad9">
        <stop
           offset="0%"
           stop-color="#c6a564"
           stop-opacity="1.0000"
           id="stop21" />
        <stop
           offset="100%"
           stop-color="#a77f65"
           stop-opacity="1.0000"
           id="stop22" />
      </linearGradient>
      <linearGradient
         xlink:href="#grad9"
         id="grad10"
         x1="643.12189"
         y1="376.11154"
         x2="643.12189"
         y2="413.15417"
         gradientTransform="scale(0.55682603,1.7958931)"
         gradientUnits="userSpaceOnUse" />
    </defs>
    <path
       d="m 358.107,675.4561 h 20.6263 v 66.5246 H 358.107 Z"
       style="fill:url(#grad10)"
       id="path22" />
    <defs
       id="defs24">
      <linearGradient
         id="grad11">
        <stop
           offset="0%"
           stop-color="#c6a564"
           stop-opacity="1.0000"
           id="stop23" />
        <stop
           offset="100%"
           stop-color="#a77f65"
           stop-opacity="1.0000"
           id="stop24" />
      </linearGradient>
      <linearGradient
         xlink:href="#grad11"
         id="grad12"
         x1="409.05933"
         y1="660.18536"
         x2="409.05933"
         y2="725.20642"
         gradientTransform="scale(0.97739271,1.0231302)"
         gradientUnits="userSpaceOnUse" />
    </defs>
    <path
       d="m 399.8116,675.4556 h 19.1856 l 44.3655,61.3633 v 5.1617 h -19.4188 l -24.8068,-36.5293 v 36.5293 h -19.3255 z"
       style="fill:url(#grad12)"
       id="path24" />
    <defs
       id="defs26">
      <linearGradient
         id="grad13">
        <stop
           offset="0%"
           stop-color="#c6a564"
           stop-opacity="1.0000"
           id="stop25" />
        <stop
           offset="100%"
           stop-color="#a77f65"
           stop-opacity="1.0000"
           id="stop26" />
      </linearGradient>
      <linearGradient
         xlink:href="#grad13"
         id="grad14"
         x1="455.68637"
         y1="704.99573"
         x2="455.68637"
         y2="774.43011"
         gradientTransform="scale(1.0437337,0.95809884)"
         gradientUnits="userSpaceOnUse" />
    </defs>
    <path
       d="m 511.6179,692.7061 c -5.0099,16.4237 -10.0104,32.8508 -15.0203,49.2745 h -20.9824 l 25.0392,-66.525 h 22.5003 l 24.9315,66.525 H 526.561 c -4.987,-16.4229 -9.9544,-32.8516 -14.9431,-49.2745 z"
       style="fill:url(#grad14)"
       id="path26" />
    <defs
       id="defs28">
      <linearGradient
         id="grad15">
        <stop
           offset="0%"
           stop-color="#c6a564"
           stop-opacity="1.0000"
           id="stop27" />
        <stop
           offset="100%"
           stop-color="#a77f65"
           stop-opacity="1.0000"
           id="stop28" />
      </linearGradient>
      <linearGradient
         xlink:href="#grad15"
         id="grad16"
         x1="630.16034"
         y1="601.07983"
         x2="630.16034"
         y2="660.27924"
         gradientTransform="scale(0.88988737,1.1237377)"
         gradientUnits="userSpaceOnUse" />
    </defs>
    <path
       d="m 560.7717,675.4561 h 20.5336 v 50.1721 h 32.1472 v 16.3525 h -52.6808 z"
       style="fill:url(#grad16)"
       id="path28" />
    <defs
       id="defs30" />
    <defs
       id="defs32" />
    <defs
       id="defs34" />
  </g>
</svg>
